<svg width="1400" height="900" viewBox="0 0 1400 900" xmlns="http://www.w3.org/2000/svg" role="img" aria-labelledby="t d">
<title id="t">Public Procurement Process Overview</title>
<desc id="d">Public sector procurement control board with stage gates, compliance checks, and execution dashboard.</desc>
<defs><linearGradient id="bgF" x1="0" y1="0" x2="1" y2="1"><stop stop-color="#F8FAFC"/><stop offset="1" stop-color="#E2E8F0"/></linearGradient></defs>
<rect width="1400" height="900" rx="36" fill="url(#bgF)"/>
<rect x="70" y="60" width="1260" height="780" rx="30" fill="#FFFFFF" stroke="#CBD5E1"/>
<rect x="104" y="92" width="1192" height="90" rx="18" fill="#991B1B"/><text x="138" y="148" fill="#FEE2E2" font-size="24" font-family="Arial" font-weight="700">Public Procurement Governance Board</text>

<rect x="104" y="214" width="262" height="160" rx="18" fill="#111827"/>
<rect x="386" y="214" width="262" height="160" rx="18" fill="#111827"/>
<rect x="668" y="214" width="262" height="160" rx="18" fill="#111827"/>
<rect x="950" y="214" width="346" height="160" rx="18" fill="#111827"/>
<text x="130" y="298" fill="#E2E8F0" font-size="14" font-family="Arial" font-weight="700">Requirement Intake</text>
<text x="412" y="298" fill="#E2E8F0" font-size="14" font-family="Arial" font-weight="700">Tender Documentation</text>
<text x="694" y="298" fill="#E2E8F0" font-size="14" font-family="Arial" font-weight="700">Administrative Validation</text>
<text x="976" y="298" fill="#E2E8F0" font-size="14" font-family="Arial" font-weight="700">Contract Award & Control</text>
<path d="M366 290H386" stroke="#DC2626" stroke-width="5"/><path d="M648 290H668" stroke="#DC2626" stroke-width="5"/><path d="M930 290H950" stroke="#DC2626" stroke-width="5"/>

<rect x="104" y="404" width="830" height="408" rx="24" fill="#0F172A"/>
<rect x="956" y="404" width="340" height="408" rx="24" fill="#0F172A"/>
<rect x="138" y="440" width="762" height="336" rx="18" fill="#111827"/>
<rect x="170" y="476" width="260" height="10" rx="5" fill="#64748B"/><rect x="170" y="496" width="350" height="9" rx="4" fill="#334155"/>
<polyline points="180,742 280,700 380,718 480,652 580,676 680,620 780,646 870,592" stroke="#60A5FA" stroke-width="8" fill="none" stroke-linecap="round"/>

<rect x="984" y="440" width="284" height="162" rx="16" fill="#111827"/>
<rect x="984" y="620" width="284" height="156" rx="16" fill="#111827"/>
<rect x="1010" y="474" width="170" height="10" rx="5" fill="#94A3B8"/><rect x="1010" y="494" width="220" height="9" rx="4" fill="#475569"/>
<rect x="1010" y="652" width="170" height="10" rx="5" fill="#94A3B8"/><rect x="1010" y="672" width="220" height="9" rx="4" fill="#475569"/><rect x="1010" y="700" width="238" height="62" rx="11" fill="#7F1D1D"/>
</svg>
