<svg width="1600" height="1000" viewBox="0 0 1600 1000" xmlns="http://www.w3.org/2000/svg" role="img" aria-labelledby="title desc">
  <title id="title">KPI Dashboard for Business Support Teams</title>
  <desc id="desc">Dark enterprise KPI dashboard with SLA metrics, response trends, queue health and escalation panels.</desc>
  <defs>
    <linearGradient id="bg" x1="0" y1="0" x2="1" y2="1">
      <stop offset="0%" stop-color="#0B1220"/>
      <stop offset="100%" stop-color="#1F2937"/>
    </linearGradient>
  </defs>
  <rect width="1600" height="1000" fill="url(#bg)"/>
  <rect x="78" y="56" width="1444" height="888" rx="24" fill="#0F172A" stroke="#334155"/>
  <rect x="78" y="56" width="1444" height="74" rx="24" fill="#020617"/>
  <text x="120" y="101" font-family="Segoe UI, Arial" font-size="24" fill="#E2E8F0" font-weight="600">Business Support KPI Cockpit</text>
  <rect x="108" y="158" width="346" height="140" rx="14" fill="#111827" stroke="#334155"/>
  <rect x="470" y="158" width="346" height="140" rx="14" fill="#111827" stroke="#334155"/>
  <rect x="832" y="158" width="346" height="140" rx="14" fill="#111827" stroke="#334155"/>
  <rect x="1194" y="158" width="298" height="140" rx="14" fill="#111827" stroke="#334155"/>
  <text x="132" y="248" font-family="Segoe UI, Arial" font-size="40" fill="#F8FAFC" font-weight="700">842</text>
  <text x="494" y="248" font-family="Segoe UI, Arial" font-size="40" fill="#86EFAC" font-weight="700">94.1%</text>
  <text x="856" y="248" font-family="Segoe UI, Arial" font-size="40" fill="#93C5FD" font-weight="700">2.7 h</text>
  <text x="1218" y="248" font-family="Segoe UI, Arial" font-size="40" fill="#FCA5A5" font-weight="700">27</text>
  <rect x="108" y="324" width="958" height="594" rx="16" fill="#111827" stroke="#334155"/>
  <rect x="1088" y="324" width="404" height="594" rx="16" fill="#111827" stroke="#334155"/>
  <line x1="146" y1="860" x2="1028" y2="860" stroke="#334155"/>
  <line x1="146" y1="790" x2="1028" y2="790" stroke="#334155"/>
  <line x1="146" y1="720" x2="1028" y2="720" stroke="#334155"/>
  <polyline points="162,836 254,804 346,814 438,764 530,778 622,732 714,750 806,702 898,718 990,680" fill="none" stroke="#38BDF8" stroke-width="5"/>
  <polyline points="162,854 254,842 346,846 438,816 530,824 622,802 714,808 806,786 898,794 990,776" fill="none" stroke="#22C55E" stroke-width="4"/>
  <rect x="146" y="392" width="278" height="278" rx="12" fill="#0F172A"/>
  <rect x="438" y="392" width="278" height="278" rx="12" fill="#0F172A"/>
  <rect x="730" y="392" width="298" height="278" rx="12" fill="#0F172A"/>
  <rect x="1118" y="360" width="344" height="176" rx="12" fill="#0F172A"/>
  <rect x="1118" y="548" width="344" height="176" rx="12" fill="#0F172A"/>
  <rect x="1118" y="736" width="344" height="152" rx="12" fill="#0F172A"/>
  <rect x="1142" y="410" width="292" height="24" rx="8" fill="#1E293B"/>
  <rect x="1142" y="442" width="292" height="24" rx="8" fill="#1E293B"/>
  <rect x="1142" y="474" width="292" height="24" rx="8" fill="#1E293B"/>
  <rect x="1142" y="600" width="292" height="32" rx="8" fill="#1E293B"/>
  <rect x="1142" y="640" width="292" height="32" rx="8" fill="#1E293B"/>
  <rect x="1142" y="680" width="292" height="32" rx="8" fill="#1E293B"/>
  <rect x="1142" y="788" width="292" height="80" rx="8" fill="#1E293B"/>
</svg>
