<svg width="1400" height="900" viewBox="0 0 1400 900" xmlns="http://www.w3.org/2000/svg" role="img" aria-labelledby="t d">
<title id="t">Solar Financing Documentation Workflow</title>
<desc id="d">Documentation and financial validation system with queue status and compliance checkpoints.</desc>
<defs><linearGradient id="bgE" x1="0" y1="0" x2="1" y2="1"><stop stop-color="#FFF7ED"/><stop offset="1" stop-color="#DBEAFE"/></linearGradient></defs>
<rect width="1400" height="900" rx="36" fill="url(#bgE)"/>
<rect x="70" y="60" width="1260" height="780" rx="30" fill="#FFFFFF" stroke="#E2E8F0"/>
<rect x="104" y="92" width="1192" height="90" rx="18" fill="#0F172A"/><text x="138" y="148" fill="#E2E8F0" font-size="24" font-family="Arial" font-weight="700">Solar Financing Documentation and Validation Flow</text>

<rect x="104" y="214" width="282" height="248" rx="20" fill="#F8FAFC" stroke="#CBD5E1"/>
<rect x="406" y="214" width="282" height="248" rx="20" fill="#F8FAFC" stroke="#CBD5E1"/>
<rect x="708" y="214" width="282" height="248" rx="20" fill="#F8FAFC" stroke="#CBD5E1"/>
<rect x="1010" y="214" width="286" height="248" rx="20" fill="#F8FAFC" stroke="#CBD5E1"/>

<text x="130" y="255" fill="#111827" font-size="16" font-family="Arial" font-weight="700">Document Intake</text>
<text x="432" y="255" fill="#111827" font-size="16" font-family="Arial" font-weight="700">Financial Validation</text>
<text x="734" y="255" fill="#111827" font-size="16" font-family="Arial" font-weight="700">Approval Status</text>
<text x="1036" y="255" fill="#111827" font-size="16" font-family="Arial" font-weight="700">SLA & Risk</text>

<rect x="132" y="278" width="226" height="26" rx="8" fill="#E2E8F0"/><rect x="132" y="312" width="226" height="26" rx="8" fill="#DBEAFE"/><rect x="132" y="346" width="226" height="26" rx="8" fill="#DCFCE7"/>
<rect x="434" y="278" width="226" height="94" rx="10" fill="#111827"/>
<rect x="736" y="278" width="226" height="94" rx="10" fill="#111827"/>
<rect x="1038" y="278" width="230" height="26" rx="8" fill="#86EFAC"/><rect x="1038" y="312" width="230" height="26" rx="8" fill="#FDE68A"/><rect x="1038" y="346" width="230" height="26" rx="8" fill="#FCA5A5"/>

<rect x="104" y="492" width="1192" height="320" rx="24" fill="#0F172A"/>
<rect x="140" y="530" width="470" height="244" rx="18" fill="#111827"/>
<rect x="632" y="530" width="300" height="244" rx="18" fill="#111827"/>
<rect x="954" y="530" width="314" height="244" rx="18" fill="#111827"/>
<rect x="168" y="564" width="250" height="11" rx="5" fill="#64748B"/><rect x="168" y="586" width="390" height="9" rx="4" fill="#334155"/><rect x="168" y="614" width="412" height="146" rx="12" fill="#1E3A8A"/>
<rect x="660" y="564" width="170" height="11" rx="5" fill="#64748B"/><rect x="660" y="586" width="240" height="9" rx="4" fill="#334155"/>
<rect x="982" y="564" width="170" height="11" rx="5" fill="#64748B"/><rect x="982" y="586" width="240" height="9" rx="4" fill="#334155"/><rect x="982" y="614" width="260" height="146" rx="12" fill="#14532D"/>
</svg>
