<svg width="138" height="29" viewBox="0 0 138 29" fill="none" xmlns="http://www.w3.org/2000/svg">
<path d="M84.2084 21.7589L86.8368 28.833H85.8439L85.1079 26.7015H82.2663L81.51 28.833H80.5929L83.2213 21.7589H84.2084ZM84.8334 25.9086L83.709 22.6115H83.6886L82.5584 25.9086H84.8334ZM88.557 21.7589V28.0401H91.9972V28.833H87.6604V21.7589H88.557ZM96.1793 21.7589L98.8077 28.833H97.8148L97.0788 26.7015H94.2401L93.4838 28.833H92.5667L95.1951 21.7589H96.1793ZM96.8043 25.9086L95.6799 22.6115H95.6595L94.5322 25.9086H96.8043ZM102.809 21.7589C103.354 21.7252 103.892 21.9018 104.316 22.2538C104.498 22.4255 104.641 22.6359 104.735 22.8703C104.829 23.1047 104.871 23.3573 104.859 23.6102C104.864 24.0069 104.763 24.3975 104.567 24.74C104.469 24.906 104.339 25.0503 104.186 25.1645C104.032 25.2786 103.858 25.3603 103.673 25.4048V25.4227C103.845 25.4535 104.008 25.5217 104.152 25.6224C104.271 25.7109 104.37 25.8236 104.444 25.9533C104.519 26.0882 104.573 26.234 104.605 26.3856C104.64 26.549 104.668 26.7141 104.687 26.8804C104.687 27.0533 104.707 27.2262 104.713 27.4051C104.72 27.5807 104.737 27.7559 104.762 27.9298C104.785 28.0964 104.822 28.2609 104.871 28.4216C104.914 28.5717 104.987 28.7115 105.084 28.833H104.082C104.013 28.7478 103.968 28.6445 103.954 28.5349C103.93 28.3959 103.916 28.2555 103.91 28.1146C103.91 27.9596 103.904 27.7926 103.892 27.6138C103.886 27.4378 103.867 27.2624 103.837 27.0891C103.809 26.9162 103.777 26.7522 103.74 26.5972C103.707 26.4517 103.646 26.3141 103.562 26.1918C103.479 26.0741 103.368 25.979 103.241 25.9145C103.074 25.8384 102.892 25.8027 102.709 25.8102H100.519V28.833H99.6196V21.7589H102.809ZM102.996 24.9695C103.173 24.9415 103.342 24.8755 103.492 24.7758C103.637 24.6789 103.755 24.5454 103.834 24.3882C103.926 24.1923 103.969 23.9762 103.959 23.7592C103.971 23.4422 103.867 23.1322 103.667 22.8887C103.548 22.7674 103.404 22.6742 103.246 22.616C103.087 22.5578 102.918 22.5359 102.75 22.5519H100.522V25.0172H102.391C102.596 25.0195 102.8 25.0035 103.001 24.9695H102.996ZM107.376 21.7589L109.502 27.7032L111.64 21.7589H112.867V28.833H112.017V22.9484H111.996L109.891 28.833H109.134L107.026 22.9484H107.008V28.833H106.158V21.7589H107.376ZM117.285 21.7589L119.914 28.833H118.921L118.185 26.7015H115.332L114.575 28.833H113.658L116.287 21.7589H117.285ZM117.91 25.9086L116.786 22.6115H116.768L115.624 25.9086H117.91ZM124.029 22.7248C123.688 22.4794 123.277 22.3567 122.86 22.376C122.673 22.3763 122.486 22.3963 122.303 22.4356C122.13 22.4726 121.965 22.5402 121.815 22.6354C121.674 22.7279 121.557 22.855 121.476 23.005C121.383 23.189 121.339 23.3945 121.348 23.6012C121.339 23.7949 121.405 23.9843 121.532 24.1289C121.67 24.2764 121.838 24.3905 122.025 24.4628C122.249 24.5543 122.481 24.6251 122.717 24.6744C122.977 24.7311 123.24 24.7937 123.509 24.8592C123.777 24.9248 124.037 25.0023 124.297 25.0918C124.545 25.1761 124.78 25.2976 124.992 25.4525C125.197 25.6037 125.364 25.8005 125.483 26.0278C125.613 26.3176 125.676 26.6343 125.666 26.953C125.656 27.2717 125.573 27.5836 125.425 27.8642C125.269 28.1275 125.058 28.3517 124.805 28.52C124.547 28.6905 124.261 28.8145 123.961 28.8867C123.656 28.9608 123.344 28.9988 123.03 29C122.667 29.0016 122.307 28.9515 121.958 28.8509C121.641 28.7587 121.343 28.606 121.082 28.4008C120.823 28.1965 120.615 27.9317 120.477 27.6287C120.322 27.2789 120.246 26.8977 120.255 26.5137H121.108C121.102 26.7788 121.158 27.0415 121.272 27.2799C121.377 27.4869 121.526 27.668 121.707 27.8105C121.896 27.9495 122.109 28.0506 122.335 28.1086C122.576 28.1743 122.824 28.2073 123.074 28.207C123.278 28.2077 123.481 28.1877 123.681 28.1474C123.876 28.1123 124.064 28.0437 124.236 27.9447C124.398 27.8499 124.534 27.7157 124.633 27.5541C124.74 27.3607 124.791 27.1408 124.782 26.9192C124.793 26.7043 124.728 26.4926 124.598 26.323C124.465 26.1621 124.297 26.0347 124.107 25.9503C123.884 25.8484 123.651 25.7705 123.412 25.7178L122.624 25.5359C122.355 25.4733 122.092 25.3988 121.835 25.3183C121.59 25.2412 121.357 25.1309 121.14 24.9904C120.938 24.858 120.77 24.6781 120.65 24.4657C120.519 24.218 120.455 23.9391 120.466 23.6579C120.458 23.336 120.529 23.0174 120.673 22.7307C120.806 22.4759 120.995 22.2557 121.225 22.0868C121.464 21.9163 121.729 21.7892 122.011 21.7112C122.304 21.6275 122.608 21.5854 122.913 21.586C123.239 21.5838 123.563 21.628 123.877 21.7172C124.161 21.7974 124.426 21.9353 124.657 22.1226C124.882 22.3112 125.063 22.5497 125.185 22.8202C125.321 23.1372 125.393 23.4788 125.398 23.8248H124.548C124.543 23.6144 124.494 23.4076 124.404 23.218C124.314 23.0284 124.186 22.8603 124.029 22.7248ZM49.2216 4.15266C49.1602 4.3196 49.0902 4.53126 49.0142 4.78763C48.4729 6.65156 48.2535 8.59742 48.3659 10.5381L52.6034 8.53187L50.3021 3.51173C49.9315 3.70649 49.5708 3.92041 49.2216 4.15266ZM48.4184 11.2327C48.5809 12.9722 48.9871 14.6789 49.6246 16.3006L55.0011 13.7517L52.875 9.11914L48.4184 11.2327ZM50.3897 17.9998C51.2031 19.6005 52.2367 21.0742 53.4591 22.376L57.9595 20.2445L55.7634 15.4569L50.3897 17.9998ZM53.9381 22.856C55.3543 24.2554 56.995 25.3968 58.7889 26.2305C58.97 26.314 59.1306 26.3826 59.2679 26.4392C59.7059 26.3001 60.143 26.1361 60.5792 25.9473L58.2428 20.8199L53.9381 22.856ZM58.2837 26.7075C56.4423 25.8183 54.7632 24.6145 53.3189 23.1481L49.2303 25.0918C50.5466 25.9883 52.0315 26.595 53.5903 26.8732C55.149 27.1513 56.7475 27.0949 58.2837 26.7075ZM52.8458 22.6562C51.6387 21.3441 50.6129 19.8697 49.7969 18.274L45.1768 20.4651L43.4449 21.2879C43.3223 21.0554 43.2055 20.8199 43.0945 20.5784C42.3144 18.8721 41.872 17.0253 41.7925 15.1441C41.713 13.2628 41.9981 11.3841 42.6313 9.61552C43.2645 7.84695 44.2335 6.22335 45.4827 4.8378C46.7319 3.45224 48.2366 2.33198 49.9108 1.54123C56.0437 -1.37128 62.8367 0.175901 66.75 5.48222L64.9978 6.35568C64.4017 5.59568 63.715 4.9147 62.9535 4.32855L58.6984 6.34673C59.8888 7.60064 60.9013 9.01849 61.7064 10.559L67.5327 7.79554L68.1431 7.52724C68.3125 7.82535 68.4702 8.14731 68.6191 8.46927C69.3999 10.1744 69.8434 12.0199 69.9243 13.9002C70.0052 15.7806 69.7219 17.6587 69.0906 19.4271C68.4593 21.1955 67.4925 22.8194 66.2454 24.2058C64.9984 25.5922 63.4956 26.7138 61.8233 27.5064C55.667 30.4249 48.8799 28.9046 44.9723 23.5804L46.7041 22.686C47.2705 23.4163 47.9195 24.0757 48.6375 24.6506L52.8458 22.6562ZM49.0317 16.5748C48.3978 14.9569 47.9851 13.2577 47.8052 11.5249L43.7165 13.4506C43.5619 15.2518 43.7983 17.0656 44.4087 18.7629L49.0317 16.5748ZM47.7321 10.8333C47.5861 8.79747 47.7907 6.75131 48.3367 4.78763C45.898 6.73696 44.2817 9.56424 43.8187 12.6905L47.7321 10.8333ZM58.5378 19.9583L63.2367 17.7315C63.0462 15.9384 62.6046 14.1826 61.9255 12.5176L56.3387 15.1678L58.5378 19.9583ZM63.85 17.4393L68.0117 15.4659C68.1506 13.6086 67.8751 11.7433 67.2057 10.0105L62.5037 12.2433C63.1909 13.9016 63.6442 15.6511 63.85 17.4393ZM67.9386 16.2231L63.926 18.125C64.0926 20.1794 63.9229 22.2477 63.4237 24.2451C65.8868 22.2663 67.5046 19.3918 67.9386 16.2231ZM63.3039 18.4171L58.8152 20.5486L61.1691 25.6761C61.6573 25.4368 62.1294 25.1649 62.5826 24.8622C62.6293 24.7191 62.6789 24.5641 62.7315 24.3644C63.2594 22.4309 63.457 20.4191 63.3156 18.4171H63.3039ZM53.1904 8.25463L57.6266 6.16787C56.237 4.83067 54.6302 3.75033 52.878 2.97513C52.6151 2.85887 52.3961 2.77242 52.2267 2.70982C51.7714 2.86457 51.324 3.04267 50.8862 3.24343L53.1904 8.25463ZM58.2516 5.86976L62.3898 3.90821C61.0474 3.02123 59.5383 2.43044 57.9591 2.17376C56.3799 1.91707 54.7655 2.00016 53.2196 2.41767C55.0793 3.26373 56.7817 4.43163 58.2516 5.86976ZM58.1172 6.65378L53.4445 8.85979L55.5706 13.4924L61.1428 10.8482C60.3292 9.31011 59.3055 7.89787 58.1026 6.65378H58.1172ZM6.47801 4.54616C4.88053 4.57001 1.93381 5.3749 0.587483 10.9883C-0.0707426 13.6118 -0.177243 16.3478 0.274994 19.0163C0.648459 21.2649 1.26452 23.4644 2.11194 25.5747C2.30006 26.0135 2.54037 26.427 2.82746 26.8059C3.08802 27.1276 3.44275 27.3556 3.83957 27.4565C4.2364 27.5574 4.65444 27.5258 5.03238 27.3663C5.5347 27.1159 6.11003 26.5078 5.90852 25.1246C5.77004 24.382 5.5857 23.6492 5.35657 22.9305C4.85425 21.2581 4.18839 19.2429 4.12998 17.806C4.05113 15.8862 4.79292 15.6358 5.29815 15.5255C6.12756 15.3377 6.82262 16.2678 7.47971 17.4304C8.26823 18.8196 9.61748 21.2819 10.7185 23.16C11.7144 24.8592 13.5484 26.6747 16.4951 26.5525C19.4973 26.4243 21.711 25.2557 22.8529 21.5711C23.7057 18.8166 24.2868 16.7596 25.2214 14.649C26.299 12.2254 27.7359 10.9287 28.9449 11.3251C30.0664 11.6918 30.3468 12.8157 30.3614 14.4583C30.3433 15.8768 30.2458 17.2931 30.0693 18.7003C29.995 19.2864 29.9628 19.8772 29.9729 20.4681C30.0401 21.4072 30.4402 22.3462 31.477 22.4952C32.5809 22.6562 33.4658 21.7559 33.8133 20.6649C33.9611 20.1576 34.0695 19.6393 34.1375 19.1147C34.4606 17.0171 34.5488 14.8889 34.4003 12.771C34.2819 10.1579 33.7227 7.58524 32.7474 5.16623C31.8479 3.04072 30.411 1.67836 28.5448 1.55912C26.5005 1.42497 24.1321 2.81714 22.8938 5.51501C21.7548 8.00422 20.8495 10.559 20.2888 11.8617C19.7281 13.1645 18.9045 13.9992 17.637 14.1363C16.0863 14.3032 14.7516 13.1525 13.7733 11.5159C12.9205 10.088 11.2296 7.36925 10.3242 6.44809C9.46561 5.57166 8.49603 4.48952 6.47508 4.53126L6.47801 4.54616ZM83.1425 0.268312L84.81 5.41068H84.8305L86.4104 0.268312H88.6183V7.74784H87.1581V2.44748H87.1377L85.3854 7.74784H84.1763L82.4241 2.49816H82.4065V7.74784H80.9463V0.268312H83.1425ZM90.0259 2.41469C90.1746 1.95597 90.4087 1.53085 90.7152 1.16264C91.0192 0.804904 91.3959 0.519053 91.8191 0.324954C92.2863 0.123672 92.7883 0.0199702 93.2954 0.0199702C93.8025 0.0199702 94.3044 0.123672 94.7717 0.324954C95.1935 0.519914 95.5691 0.805669 95.8727 1.16264C96.182 1.52684 96.4209 1.94766 96.5765 2.40277C96.7391 2.90464 96.8199 3.43031 96.816 3.95889C96.8191 4.47668 96.7382 4.99142 96.5765 5.48222C96.4265 5.93405 96.1925 6.35209 95.8873 6.71341C95.5822 7.06498 95.2068 7.34557 94.7863 7.53619C93.8406 7.93355 92.7794 7.93355 91.8337 7.53619C91.4119 7.34643 91.0353 7.06575 90.7298 6.71341C90.4236 6.35284 90.1894 5.93458 90.0406 5.48222C89.8775 4.99177 89.7966 4.47679 89.8011 3.95889C89.7949 3.43039 89.8749 2.90451 90.0376 2.40277L90.0259 2.41469ZM91.4599 4.88601C91.5249 5.17087 91.6375 5.44215 91.7928 5.68792C91.9454 5.92525 92.1518 6.12157 92.3944 6.26028C92.6741 6.40142 92.9819 6.47485 93.2939 6.47485C93.6059 6.47485 93.9137 6.40142 94.1934 6.26028C94.4292 6.11866 94.6292 5.92264 94.7775 5.68792C94.9337 5.4423 95.0474 5.17102 95.1134 4.88601C95.1839 4.5863 95.2192 4.27906 95.2185 3.97081C95.2193 3.64977 95.184 3.3297 95.1134 3.01687C95.0485 2.72497 94.9349 2.44665 94.7775 2.19409C94.6303 1.95771 94.4301 1.7605 94.1934 1.61874C93.9137 1.4776 93.6059 1.40418 93.2939 1.40418C92.9819 1.40418 92.6741 1.4776 92.3944 1.61874C92.151 1.75772 91.9445 1.95521 91.7928 2.19409C91.6364 2.4468 91.5237 2.72513 91.4599 3.01687C91.3892 3.3297 91.3539 3.64977 91.3548 3.97081C91.3578 4.27954 91.3971 4.58678 91.4716 4.88601H91.4599ZM99.4531 7.67928L97.1606 0.199749H98.7698L100.358 5.45837H100.379L101.988 0.199749H103.606L101.238 7.67928H99.4531ZM106.17 0.199749V7.67928H104.599V0.199749H106.17ZM108.985 5.83399C109.066 6.00137 109.184 6.1473 109.33 6.26028C109.482 6.37211 109.653 6.45308 109.835 6.49877C110.026 6.55134 110.222 6.57839 110.419 6.57926C110.57 6.57895 110.72 6.56599 110.869 6.54051C111.025 6.51746 111.177 6.47021 111.319 6.4004C111.457 6.3307 111.577 6.22854 111.669 6.10229C111.767 5.96807 111.816 5.80402 111.81 5.63724C111.813 5.54678 111.799 5.4565 111.767 5.37192C111.736 5.28733 111.687 5.21024 111.626 5.14536C111.485 5.0102 111.32 4.90304 111.141 4.82937C110.92 4.73973 110.692 4.66699 110.46 4.61175C110.206 4.54915 109.952 4.4776 109.692 4.40009C109.427 4.33219 109.167 4.24655 108.912 4.14372C108.668 4.04786 108.439 3.91631 108.232 3.7532C108.012 3.57716 107.837 3.35003 107.72 3.09074C107.604 2.83146 107.55 2.54753 107.563 2.26266C107.555 1.9138 107.636 1.56876 107.797 1.26101C107.951 0.983341 108.161 0.742446 108.413 0.554498C108.672 0.362547 108.963 0.221051 109.272 0.137146C109.583 0.0464602 109.906 0.000311075 110.23 1.70231e-05C110.592 -0.000994213 110.953 0.0430515 111.304 0.131183C111.633 0.211036 111.943 0.354763 112.218 0.554498C112.484 0.750928 112.702 1.00691 112.855 1.30275C113.019 1.64694 113.099 2.02627 113.089 2.40873H111.57C111.564 2.21635 111.518 2.02746 111.436 1.85425C111.368 1.71593 111.268 1.59706 111.144 1.50844C111.011 1.42207 110.863 1.36144 110.709 1.32958C110.532 1.29508 110.353 1.2781 110.174 1.2789C110.046 1.27819 109.919 1.29219 109.794 1.32064C109.672 1.3474 109.555 1.39691 109.45 1.46671C109.348 1.53518 109.262 1.62452 109.196 1.72904C109.125 1.84831 109.09 1.98626 109.096 2.12553C109.091 2.24981 109.118 2.37332 109.175 2.48325C109.255 2.59538 109.365 2.68218 109.491 2.73367C109.7 2.83009 109.917 2.90692 110.139 2.96321L111.225 3.26132C111.357 3.28815 111.544 3.33883 111.78 3.41335C112.031 3.49405 112.268 3.61262 112.484 3.76512C112.728 3.93384 112.934 4.15328 113.089 4.40903C113.269 4.72048 113.358 5.07881 113.343 5.44049C113.345 5.76848 113.28 6.09336 113.153 6.39443C113.025 6.68825 112.832 6.94756 112.589 7.15162C112.314 7.37865 111.997 7.54785 111.658 7.64947C111.242 7.77551 110.809 7.83582 110.376 7.82833C109.989 7.82925 109.604 7.77813 109.231 7.6763C108.877 7.58358 108.545 7.42158 108.252 7.19932C107.967 6.98121 107.736 6.69724 107.578 6.37058C107.403 5.99946 107.32 5.58973 107.338 5.17815H108.857C108.848 5.40408 108.892 5.62891 108.985 5.83399ZM113.918 1.58297V0.199749H119.759V1.58297H117.621V7.67928H116.053V1.58297H113.918ZM123.474 0.199749L126.14 7.67928H124.511L123.973 6.01285H121.304L120.743 7.67928H119.166L121.865 0.199749H123.474ZM123.561 4.78763L122.662 2.04206H122.644L121.713 4.78763H123.561ZM131.003 0.199749C131.302 0.193196 131.6 0.247931 131.879 0.360727C132.126 0.463168 132.35 0.615229 132.539 0.807889C132.721 0.993673 132.865 1.21592 132.959 1.46074C133.058 1.71612 133.107 1.9883 133.105 2.26266C133.115 2.66025 133.023 3.05352 132.84 3.40441C132.64 3.74541 132.33 4.00474 131.963 4.13776V4.15862C132.14 4.20538 132.304 4.29311 132.442 4.415C132.569 4.53061 132.674 4.66905 132.752 4.8234C132.835 4.98639 132.895 5.16124 132.927 5.34211C132.964 5.52913 132.989 5.71829 133.003 5.90851C133.003 6.02776 133.003 6.16787 133.024 6.32587C133.044 6.48387 133.041 6.65081 133.059 6.82073C133.072 6.98068 133.098 7.13921 133.137 7.29472C133.167 7.43256 133.222 7.5632 133.301 7.67928H131.733C131.64 7.40523 131.586 7.11919 131.572 6.82967C131.555 6.50175 131.522 6.18874 131.485 5.88765C131.462 5.57196 131.342 5.27159 131.143 5.0291C131.026 4.9277 130.891 4.85119 130.745 4.80408C130.599 4.75697 130.445 4.74023 130.293 4.75484H128.725V7.67928H127.156V0.199749H131.003ZM130.454 3.5952C130.745 3.6169 131.033 3.5265 131.263 3.3418C131.361 3.23271 131.436 3.10354 131.483 2.96276C131.529 2.82198 131.545 2.67279 131.531 2.52499C131.544 2.38136 131.527 2.23649 131.481 2.1002C131.435 1.96391 131.36 1.83937 131.263 1.73501C131.032 1.55398 130.744 1.46591 130.454 1.48758H128.733V3.5952H130.454ZM84.1617 10.9883C84.5511 10.9775 84.9386 11.0475 85.3007 11.194C85.5916 11.3126 85.853 11.4959 86.0658 11.7306C86.2608 11.9518 86.4072 12.213 86.4951 12.4967C86.5866 12.7856 86.633 13.0874 86.6324 13.391C86.6324 13.6946 86.5861 13.9963 86.4951 14.2854C86.4083 14.5705 86.2619 14.8329 86.0658 15.0545C85.8532 15.2901 85.5918 15.4744 85.3007 15.594C84.9383 15.7394 84.5509 15.8084 84.1617 15.7968H82.5146V18.4797H80.9463V10.9883H84.1617ZM83.7266 14.5089C83.9006 14.509 84.0745 14.495 84.2464 14.4672C84.4023 14.4417 84.552 14.386 84.6874 14.3032C84.8117 14.2174 84.9122 14.1003 84.9794 13.9634C85.0622 13.7838 85.1013 13.5864 85.0933 13.388C85.1013 13.1887 85.0622 12.9904 84.9794 12.8097C84.9122 12.6728 84.8117 12.5558 84.6874 12.4699C84.5524 12.3868 84.4024 12.3321 84.2464 12.3089C84.0746 12.2796 83.9007 12.2656 83.7266 12.2672H82.5087V14.5089H83.7266ZM91.6118 10.9883C91.9114 10.982 92.2092 11.0368 92.4879 11.1493C92.7343 11.253 92.9586 11.4049 93.1479 11.5964C93.3306 11.7822 93.4737 12.0044 93.5684 12.2493C93.6655 12.5049 93.714 12.777 93.7115 13.0512C93.722 13.4486 93.6315 13.8419 93.4487 14.1929C93.2491 14.5339 92.9393 14.7933 92.5726 14.9263V14.9472C92.7489 14.9952 92.9126 15.0828 93.0515 15.2035C93.1777 15.3198 93.2825 15.4581 93.3611 15.6119C93.4433 15.7755 93.5023 15.9501 93.5363 16.1306C93.5729 16.3177 93.5982 16.5068 93.6122 16.697C93.6122 16.8163 93.6123 16.9564 93.6327 17.1174C93.6532 17.2784 93.6502 17.4423 93.6678 17.6093C93.6814 17.7701 93.7078 17.9297 93.7466 18.0862C93.7766 18.223 93.8321 18.3525 93.9101 18.4678H92.3419C92.2481 18.1941 92.194 17.9079 92.1812 17.6182C92.1637 17.2903 92.1316 16.9773 92.0936 16.6762C92.0708 16.3605 91.9513 16.0601 91.7519 15.8176C91.6352 15.7168 91.4999 15.6408 91.3539 15.5942C91.2079 15.5476 91.0543 15.5313 90.9021 15.5463H89.3338V18.4678H87.7655V10.9883H91.6118ZM91.0277 14.3718C91.3185 14.3943 91.6071 14.305 91.8366 14.1214C91.9344 14.0117 92.0088 13.8824 92.0551 13.7418C92.1013 13.6012 92.1184 13.4523 92.1053 13.3046C92.118 13.1605 92.1006 13.0154 92.0543 12.8787C92.008 12.742 91.9338 12.6169 91.8366 12.5116C91.6055 12.3316 91.3176 12.2446 91.0277 12.2672H89.3075V14.3718H91.0277ZM94.9002 13.2032C95.0484 12.7443 95.2825 12.3191 95.5894 11.9512C95.8922 11.5921 96.2693 11.3061 96.6933 11.1135C97.1605 10.9122 97.6625 10.8085 98.1696 10.8085C98.6767 10.8085 99.1787 10.9122 99.6459 11.1135C100.067 11.3077 100.442 11.5936 100.744 11.9512C101.051 12.3191 101.285 12.7443 101.433 13.2032C101.598 13.7046 101.68 14.2305 101.676 14.7593C101.679 15.2774 101.597 15.7925 101.433 16.2827C101.285 16.7355 101.051 17.154 100.744 17.5139C100.441 17.8661 100.066 18.1468 99.6459 18.3366C98.7002 18.734 97.639 18.734 96.6933 18.3366C96.2707 18.1484 95.8938 17.8675 95.5894 17.5139C95.2822 17.154 95.0479 16.7355 94.9002 16.2827C94.7368 15.7923 94.6559 15.2773 94.6607 14.7593C94.6592 14.23 94.7441 13.7041 94.9119 13.2032H94.9002ZM96.3341 15.6745C96.3985 15.9596 96.5112 16.231 96.667 16.4764C96.8197 16.7138 97.026 16.9101 97.2686 17.0488C97.5483 17.19 97.8561 17.2634 98.1681 17.2634C98.4801 17.2634 98.788 17.19 99.0676 17.0488C99.3034 16.9072 99.5035 16.7112 99.6517 16.4764C99.8076 16.231 99.9203 15.9596 99.9847 15.6745C100.055 15.3748 100.091 15.0676 100.09 14.7593C100.091 14.4383 100.055 14.1182 99.9847 13.8054C99.9208 13.5137 99.8082 13.2353 99.6517 12.9826C99.5038 12.7468 99.3038 12.5497 99.0676 12.4073C98.788 12.2661 98.4801 12.1927 98.1681 12.1927C97.8561 12.1927 97.5483 12.2661 97.2686 12.4073C97.0261 12.5475 96.8199 12.7447 96.667 12.9826C96.5106 13.2353 96.398 13.5137 96.3341 13.8054C96.2634 14.1182 96.2282 14.4383 96.229 14.7593C96.2321 15.0681 96.2713 15.3753 96.3458 15.6745H96.3341ZM104.257 16.6255C104.338 16.7921 104.456 16.9371 104.602 17.0488C104.754 17.1604 104.926 17.2423 105.107 17.2903C105.304 17.3419 105.506 17.3679 105.709 17.3678C105.859 17.3668 106.01 17.3549 106.158 17.332C106.315 17.3089 106.467 17.2606 106.608 17.1889C106.745 17.1186 106.864 17.0165 106.956 16.8908C107.053 16.7557 107.103 16.5905 107.096 16.4228C107.1 16.3323 107.085 16.242 107.054 16.1575C107.022 16.0729 106.974 15.9958 106.912 15.9309C106.771 15.8002 106.606 15.6989 106.427 15.6328C106.206 15.5417 105.979 15.4679 105.747 15.4122C105.496 15.3496 105.239 15.2781 104.979 15.2035C104.714 15.132 104.454 15.0464 104.199 14.9472C103.954 14.8508 103.725 14.7182 103.518 14.5536C103.317 14.3922 103.152 14.189 103.034 13.9574C102.904 13.6846 102.841 13.384 102.85 13.081C102.842 12.7331 102.922 12.389 103.083 12.0823C103.236 11.8041 103.446 11.563 103.699 11.3758C103.958 11.1829 104.249 11.0404 104.558 10.9555C104.871 10.8661 105.194 10.82 105.519 10.8184C105.88 10.8175 106.24 10.8616 106.591 10.9495C106.92 11.0294 107.23 11.1742 107.505 11.3758C107.772 11.5699 107.991 11.8265 108.141 12.1241C108.305 12.4671 108.386 12.8455 108.375 13.2271H106.856C106.85 13.0347 106.804 12.8459 106.722 12.6726C106.655 12.5341 106.554 12.4151 106.43 12.3268C106.297 12.2406 106.15 12.181 105.995 12.1509C105.819 12.1139 105.64 12.0959 105.46 12.0972C105.333 12.0977 105.206 12.1117 105.081 12.139C104.958 12.1646 104.841 12.2142 104.736 12.285C104.634 12.3537 104.546 12.4429 104.479 12.5474C104.408 12.6677 104.374 12.8066 104.38 12.9468C104.374 13.0702 104.402 13.1927 104.459 13.3016C104.538 13.4139 104.648 13.5008 104.774 13.552C104.984 13.6487 105.202 13.7265 105.425 13.7845C105.7 13.862 106.062 13.9574 106.509 14.0826C106.643 14.1095 106.827 14.1601 107.064 14.2347C107.314 14.3158 107.551 14.4343 107.768 14.5864C108.01 14.7568 108.216 14.9759 108.372 15.2304C108.553 15.5418 108.641 15.9001 108.626 16.2618C108.63 16.5899 108.565 16.9151 108.436 17.2158C108.309 17.5101 108.116 17.7703 107.873 17.9759C107.598 18.2014 107.282 18.3695 106.944 18.4708C106.527 18.5968 106.094 18.6571 105.659 18.6497C105.273 18.6506 104.888 18.5995 104.514 18.4976C104.161 18.4043 103.829 18.2423 103.536 18.0206C103.251 17.803 103.02 17.5202 102.861 17.1949C102.688 16.8231 102.606 16.4139 102.622 16.0025H104.14C104.137 16.2173 104.181 16.4301 104.269 16.6255H104.257ZM115.206 10.9883V12.3715H111.439V13.9723H114.896V15.2512H111.439V17.0846H115.285V18.4678H109.87V10.9883H115.206ZM120.819 18.4112C120.494 18.5571 120.143 18.6332 119.788 18.6347C119.286 18.6418 118.789 18.5402 118.328 18.3366C117.905 18.1484 117.528 17.8675 117.224 17.5139C116.917 17.154 116.683 16.7355 116.535 16.2827C116.371 15.7925 116.289 15.2774 116.292 14.7593C116.288 14.2305 116.37 13.7046 116.535 13.2032C116.683 12.7443 116.917 12.3191 117.224 11.9512C117.527 11.5921 117.904 11.3061 118.328 11.1135C118.788 10.9085 119.286 10.8068 119.788 10.8154C120.15 10.8155 120.51 10.8739 120.854 10.9883C121.19 11.1016 121.505 11.2741 121.783 11.498C122.062 11.7238 122.295 12.0046 122.466 12.3238C122.654 12.6731 122.766 13.0593 122.796 13.4566H121.298C121.242 13.0939 121.057 12.765 120.779 12.5328C120.5 12.3007 120.147 12.1817 119.788 12.1986C119.475 12.1889 119.165 12.2629 118.889 12.4132C118.653 12.5557 118.452 12.7528 118.305 12.9886C118.147 13.2407 118.034 13.5192 117.972 13.8114C117.901 14.1242 117.866 14.4443 117.867 14.7653C117.866 15.0736 117.901 15.3808 117.972 15.6805C118.035 15.9659 118.148 16.2375 118.305 16.4824C118.453 16.7171 118.653 16.9131 118.889 17.0548C119.165 17.2051 119.475 17.2791 119.788 17.2694C120.228 17.2988 120.661 17.1499 120.994 16.855C121.297 16.5328 121.472 16.1084 121.488 15.6626H119.908V14.4374H122.907V18.4797H121.908L121.748 17.6301C121.512 17.9657 121.196 18.2345 120.831 18.4112H120.819ZM129.604 17.8954C129.063 18.3903 128.316 18.6347 127.364 18.6347C126.412 18.6347 125.649 18.3903 125.121 17.9014C124.592 17.4125 124.327 16.6583 124.327 15.6388V10.9883H125.895V15.6388C125.895 15.8386 125.912 16.038 125.944 16.235C125.975 16.4218 126.047 16.5991 126.155 16.7537C126.27 16.9124 126.423 17.0386 126.599 17.1204C126.84 17.226 127.101 17.2749 127.364 17.2635C127.925 17.2635 128.31 17.1323 128.532 16.8699C128.774 16.5094 128.888 16.0746 128.853 15.6388V10.9883H130.421V15.6388C130.424 16.6523 130.162 17.4036 129.615 17.9044L129.604 17.8954ZM135.678 10.9883C135.978 10.982 136.276 11.0368 136.554 11.1493C136.801 11.253 137.025 11.4049 137.214 11.5964C137.397 11.7822 137.54 12.0044 137.635 12.2493C137.732 12.5049 137.781 12.777 137.778 13.0512C137.789 13.4486 137.698 13.8419 137.515 14.1929C137.316 14.5339 137.006 14.7933 136.639 14.9263V14.9472C136.815 14.9952 136.979 15.0828 137.118 15.2035C137.244 15.3198 137.349 15.4581 137.428 15.6119C137.509 15.776 137.567 15.9505 137.603 16.1306C137.638 16.3179 137.663 16.507 137.679 16.697C137.679 16.8163 137.685 16.9564 137.696 17.1174C137.708 17.2784 137.727 17.4413 137.755 17.6063C137.771 17.7671 137.798 17.9265 137.836 18.0832C137.866 18.22 137.922 18.3495 138 18.4648H136.432C136.338 18.1911 136.284 17.9049 136.271 17.6152C136.251 17.2873 136.221 16.9743 136.184 16.6732C136.159 16.3578 136.04 16.0579 135.842 15.8146C135.725 15.7138 135.59 15.6378 135.444 15.5912C135.298 15.5446 135.144 15.5283 134.992 15.5434H133.424V18.4648H131.855V10.9883H135.678ZM135.126 14.3718C135.417 14.3943 135.706 14.305 135.935 14.1214C136.033 14.0117 136.107 13.8824 136.154 13.7418C136.2 13.6012 136.217 13.4523 136.204 13.3046C136.217 13.1605 136.199 13.0154 136.153 12.8787C136.107 12.742 136.032 12.6169 135.935 12.5116C135.704 12.3316 135.416 12.2446 135.126 12.2672H133.406V14.3718H135.126Z" fill="#3B3C40"/>
</svg>
