<svg width="83" height="38" viewBox="0 0 83 38" fill="none" xmlns="http://www.w3.org/2000/svg">
<path d="M56.7748 11.5216H61.1524C61.1749 11.5222 61.1969 11.515 61.2147 11.5011C61.2325 11.4873 61.245 11.4677 61.2501 11.4456C61.5773 9.75275 62.3998 8.19677 63.6121 6.97731C64.8244 5.75785 66.3712 4.93051 68.0542 4.60143C68.0766 4.59643 68.0966 4.58401 68.1111 4.56618C68.1256 4.54834 68.1337 4.52612 68.1342 4.50308V0.0997251C68.1339 0.085254 68.1306 0.0710044 68.1245 0.0579083C68.1184 0.0448122 68.1095 0.0331648 68.0986 0.0237281C68.0876 0.0182134 68.0754 0.0153439 68.0631 0.0153439C68.0507 0.0153439 68.0386 0.0182134 68.0275 0.0237281C65.1427 0.383004 62.4598 1.70097 60.4044 3.76854C58.3489 5.8361 57.0387 8.53487 56.6815 11.4367C56.6765 11.4487 56.6739 11.4616 56.6739 11.4747C56.6739 11.4877 56.6765 11.5007 56.6815 11.5127C56.6954 11.5212 56.711 11.5265 56.7272 11.528C56.7433 11.5296 56.7596 11.5274 56.7748 11.5216Z" fill="url(#paint0_linear)"/>
<path d="M68.0275 26.4886C68.0393 26.4893 68.051 26.4872 68.0618 26.4826C68.0726 26.4779 68.0822 26.4708 68.0898 26.4618C68.1005 26.4532 68.1093 26.4424 68.1155 26.43C68.1216 26.4176 68.125 26.404 68.1253 26.3902V21.9869C68.1255 21.9641 68.1176 21.9421 68.1028 21.9248C68.0881 21.9075 68.0677 21.8962 68.0453 21.893C66.3631 21.5622 64.8172 20.7343 63.6051 19.5152C62.3931 18.296 61.5701 16.7409 61.2413 15.0488C61.2363 15.0263 61.2239 15.0061 61.2062 14.9915C61.1885 14.977 61.1664 14.9688 61.1435 14.9683H56.766C56.7522 14.9686 56.7387 14.972 56.7264 14.9782C56.7141 14.9844 56.7034 14.9932 56.6949 15.0041C56.69 15.0154 56.6874 15.0275 56.6874 15.0398C56.6874 15.0522 56.69 15.0643 56.6949 15.0756C57.0507 17.9757 58.3587 20.6734 60.4116 22.7409C62.4646 24.8083 65.1448 26.1273 68.0275 26.4886Z" fill="url(#paint1_linear)"/>
<path d="M71.654 26.493C74.5385 26.133 77.221 24.8148 79.2763 22.7474C81.3316 20.68 82.6421 17.9816 83 15.0801C82.999 15.054 82.9897 15.0289 82.9733 15.0086C82.9644 14.9971 82.9529 14.9879 82.9398 14.9817C82.9267 14.9755 82.9123 14.9724 82.8978 14.9728H78.5203C78.4979 14.9734 78.4764 14.9818 78.4595 14.9964C78.4425 15.0111 78.431 15.0311 78.4269 15.0533C78.1015 16.7449 77.282 18.3005 76.0731 19.5212C74.8643 20.7419 73.3211 21.5724 71.6407 21.9064C71.6183 21.9097 71.5978 21.921 71.5831 21.9382C71.5684 21.9555 71.5604 21.9775 71.5607 22.0003V26.3768C71.5599 26.3908 71.5627 26.4048 71.569 26.4173C71.5752 26.4299 71.5846 26.4406 71.5962 26.4483C71.6005 26.4606 71.6082 26.4714 71.6185 26.4793C71.6287 26.4873 71.6411 26.492 71.654 26.493Z" fill="url(#paint2_linear)"/>
<path d="M39.6825 0.001376C36.7988 0.362324 34.1173 1.68094 32.0629 3.74828C30.0085 5.81563 28.6986 8.51348 28.3409 11.4143C28.3359 11.4264 28.3333 11.4393 28.3333 11.4523C28.3333 11.4654 28.3359 11.4783 28.3409 11.4903C28.3599 11.5094 28.3853 11.5206 28.412 11.5216H32.794C32.816 11.522 32.8374 11.5146 32.8544 11.5007C32.8715 11.4868 32.8832 11.4673 32.8873 11.4456C33.2154 9.74948 34.041 8.19103 35.2577 6.97117C36.4743 5.7513 38.0263 4.92593 39.7136 4.60143C39.7355 4.59629 39.755 4.5837 39.7688 4.56578C39.7826 4.54787 39.7897 4.52572 39.7892 4.50308V0.0997251C39.7897 0.0855502 39.7872 0.071419 39.7819 0.0583011C39.7765 0.0451832 39.7684 0.0333891 39.758 0.0237281C39.7478 0.0146889 39.7358 0.00800469 39.7227 0.00414363C39.7097 0.000282575 39.6959 -0.000662018 39.6825 0.001376Z" fill="url(#paint3_linear)"/>
<path d="M43.2956 4.60143C44.9788 4.92995 46.526 5.7571 47.7384 6.97666C48.9508 8.19622 49.7731 9.7525 50.0997 11.4456C50.1039 11.4673 50.1155 11.4868 50.1326 11.5007C50.1496 11.5146 50.171 11.522 50.193 11.5216H54.575C54.6017 11.5206 54.6271 11.5094 54.6461 11.4903C54.6548 11.4799 54.6613 11.4678 54.6651 11.4547C54.669 11.4416 54.67 11.4279 54.6683 11.4143C54.3106 8.51348 53.0008 5.81563 50.9464 3.74828C48.8919 1.68094 46.2104 0.362324 43.3267 0.001376C43.3133 -0.000662018 43.2995 0.000282575 43.2865 0.00414363C43.2734 0.00800469 43.2614 0.0146889 43.2512 0.0237281C43.2409 0.0333891 43.2327 0.0451832 43.2274 0.0583011C43.222 0.071419 43.2195 0.0855502 43.2201 0.0997251V4.50308C43.2195 4.52572 43.2267 4.54787 43.2404 4.56578C43.2542 4.5837 43.2737 4.59629 43.2956 4.60143Z" fill="url(#paint4_linear)"/>
<path d="M39.7136 21.9064C38.0312 21.5776 36.4848 20.7509 35.2726 19.5323C34.0603 18.3137 33.2375 16.7587 32.9096 15.0667C32.9046 15.0442 32.8922 15.024 32.8745 15.0094C32.8568 14.9948 32.8347 14.9867 32.8118 14.9862H28.4431C28.418 14.9874 28.3942 14.9982 28.3769 15.0165C28.3595 15.0349 28.3498 15.0592 28.3498 15.0846V37.9194C28.353 37.9419 28.3643 37.9625 28.3815 37.9773C28.3986 37.9921 28.4205 38.0001 28.4431 37.9999H32.8207C32.8333 38.0005 32.8459 37.9985 32.8578 37.9941C32.8696 37.9896 32.8804 37.9828 32.8896 37.974C32.8987 37.9652 32.906 37.9547 32.9109 37.943C32.9159 37.9313 32.9185 37.9187 32.9184 37.906V23.5068C34.84 25.1418 37.1936 26.178 39.6914 26.4886C39.7033 26.4939 39.7161 26.4966 39.7292 26.4966C39.7422 26.4966 39.755 26.4939 39.7669 26.4886C39.7772 26.4798 39.7853 26.4688 39.7907 26.4564C39.7961 26.444 39.7986 26.4306 39.798 26.4171V21.9869C39.7938 21.9664 39.7834 21.9478 39.7683 21.9334C39.7532 21.919 39.7341 21.9096 39.7136 21.9064Z" fill="url(#paint5_linear)"/>
<path d="M43.3267 26.4886C46.2093 26.1277 48.8897 24.8095 50.9432 22.743C52.9968 20.6765 54.3062 17.9798 54.6639 15.0801C54.6662 15.0665 54.6654 15.0527 54.6616 15.0395C54.6577 15.0263 54.6509 15.0142 54.6416 15.0041C54.6331 14.9932 54.6223 14.9844 54.6101 14.9782C54.5978 14.972 54.5843 14.9686 54.5705 14.9683H50.1886C50.1668 14.9687 50.1458 14.9764 50.1289 14.9902C50.112 15.004 50.1002 15.023 50.0952 15.0443C49.771 16.7396 48.9504 18.2987 47.7388 19.5215C46.5272 20.7442 44.9799 21.5747 43.2956 21.9064C43.2741 21.9106 43.2547 21.9223 43.2408 21.9395C43.227 21.9567 43.2197 21.9782 43.2201 22.0003V26.3768C43.2195 26.3903 43.2221 26.4038 43.2275 26.4162C43.2328 26.4286 43.241 26.4396 43.2512 26.4483C43.2587 26.4615 43.2698 26.4723 43.2832 26.4795C43.2965 26.4866 43.3116 26.4897 43.3267 26.4886Z" fill="url(#paint6_linear)"/>
<path d="M14.9906 0.001376C14.9768 -0.00122944 14.9625 -0.000121731 14.9492 0.00458744C14.936 0.0092966 14.9242 0.0174407 14.915 0.0281985C14.9045 0.0367495 14.8962 0.0477076 14.8908 0.0601533C14.8854 0.072599 14.883 0.0861692 14.8839 0.0997251V4.50755C14.8835 4.52964 14.8909 4.55117 14.9047 4.56834C14.9185 4.58551 14.9379 4.59723 14.9595 4.60143C16.6444 4.92924 18.1935 5.75588 19.4082 6.97533C20.6229 8.19478 21.4477 9.75144 21.7769 11.4456C21.781 11.4673 21.7927 11.4868 21.8098 11.5007C21.8268 11.5146 21.8482 11.522 21.8702 11.5216H26.221C26.2478 11.5206 26.2732 11.5094 26.2922 11.4903C26.3009 11.4799 26.3074 11.4678 26.3112 11.4547C26.315 11.4416 26.3161 11.4279 26.3144 11.4143C25.9575 8.51614 24.6503 5.82032 22.5994 3.7533C20.5485 1.68627 17.8711 0.366025 14.9906 0.001376Z" fill="url(#paint7_linear)"/>
<path d="M11.3508 0.001376C8.46519 0.359725 5.78124 1.67728 3.72491 3.74493C1.66859 5.81258 0.357712 8.51185 0.00033543 11.4143C-0.000807462 11.4282 0.000977906 11.4421 0.00557397 11.4552C0.01017 11.4683 0.0174725 11.4803 0.0270006 11.4903C0.045955 11.5094 0.0713395 11.5206 0.0981076 11.5216H4.47563C4.49759 11.522 4.51899 11.5146 4.53606 11.5007C4.55313 11.4868 4.56478 11.4673 4.56896 11.4456C4.89816 9.75172 5.72234 8.19513 6.93603 6.97508C8.14972 5.75502 9.69771 4.927 11.3819 4.59696C11.4031 4.59267 11.422 4.58078 11.435 4.5635C11.4481 4.54622 11.4545 4.52475 11.453 4.50308V0.0997251C11.4538 0.0719385 11.4443 0.044843 11.4263 0.0237281C11.416 0.014937 11.4039 0.00841019 11.3909 0.00456221C11.3779 0.00071423 11.3642 -0.000370811 11.3508 0.001376Z" fill="url(#paint8_linear)"/>
<path d="M4.47119 14.9683H0.0936634C0.0810243 14.9683 0.068514 14.9709 0.0568911 14.9759C0.0452683 14.9809 0.0347752 14.9882 0.0260482 14.9974C0.0173212 15.0066 0.0105422 15.0175 0.00612223 15.0294C0.00170229 15.0413 -0.000266441 15.054 0.00033543 15.0667V26.3768C0.000309406 26.4021 0.00999811 26.4265 0.0273835 26.4448C0.0447689 26.4631 0.0685106 26.474 0.0936634 26.4752H4.47119C4.48383 26.4752 4.49634 26.4726 4.50796 26.4676C4.51958 26.4626 4.53008 26.4553 4.53881 26.4461C4.54753 26.4369 4.55431 26.426 4.55873 26.4141C4.56315 26.4022 4.56512 26.3895 4.56452 26.3768V15.0667C4.56512 15.054 4.56315 15.0413 4.55873 15.0294C4.55431 15.0175 4.54753 15.0066 4.53881 14.9974C4.53008 14.9882 4.51958 14.9809 4.50796 14.9759C4.49634 14.9709 4.48383 14.9683 4.47119 14.9683Z" fill="url(#paint9_linear)"/>
<defs>
<linearGradient id="paint0_linear" x1="-5.35147e-07" y1="19.1152" x2="83" y2="19.1152" gradientUnits="userSpaceOnUse">
<stop stop-color="#2690C4"/>
<stop offset="0.708333" stop-color="#601B7B"/>
<stop offset="1" stop-color="#BD185F"/>
</linearGradient>
<linearGradient id="paint1_linear" x1="-5.35147e-07" y1="19.1152" x2="83" y2="19.1152" gradientUnits="userSpaceOnUse">
<stop stop-color="#2690C4"/>
<stop offset="0.708333" stop-color="#601B7B"/>
<stop offset="1" stop-color="#BD185F"/>
</linearGradient>
<linearGradient id="paint2_linear" x1="-5.35147e-07" y1="19.1152" x2="83" y2="19.1152" gradientUnits="userSpaceOnUse">
<stop stop-color="#2690C4"/>
<stop offset="0.708333" stop-color="#601B7B"/>
<stop offset="1" stop-color="#BD185F"/>
</linearGradient>
<linearGradient id="paint3_linear" x1="-5.35147e-07" y1="19.1152" x2="83" y2="19.1152" gradientUnits="userSpaceOnUse">
<stop stop-color="#2690C4"/>
<stop offset="0.708333" stop-color="#601B7B"/>
<stop offset="1" stop-color="#BD185F"/>
</linearGradient>
<linearGradient id="paint4_linear" x1="-5.35147e-07" y1="19.1152" x2="83" y2="19.1152" gradientUnits="userSpaceOnUse">
<stop stop-color="#2690C4"/>
<stop offset="0.708333" stop-color="#601B7B"/>
<stop offset="1" stop-color="#BD185F"/>
</linearGradient>
<linearGradient id="paint5_linear" x1="-5.35147e-07" y1="19.1152" x2="83" y2="19.1152" gradientUnits="userSpaceOnUse">
<stop stop-color="#2690C4"/>
<stop offset="0.708333" stop-color="#601B7B"/>
<stop offset="1" stop-color="#BD185F"/>
</linearGradient>
<linearGradient id="paint6_linear" x1="-5.35147e-07" y1="19.1152" x2="83" y2="19.1152" gradientUnits="userSpaceOnUse">
<stop stop-color="#2690C4"/>
<stop offset="0.708333" stop-color="#601B7B"/>
<stop offset="1" stop-color="#BD185F"/>
</linearGradient>
<linearGradient id="paint7_linear" x1="-5.35147e-07" y1="19.1152" x2="83" y2="19.1152" gradientUnits="userSpaceOnUse">
<stop stop-color="#2690C4"/>
<stop offset="0.708333" stop-color="#601B7B"/>
<stop offset="1" stop-color="#BD185F"/>
</linearGradient>
<linearGradient id="paint8_linear" x1="-5.35147e-07" y1="19.1152" x2="83" y2="19.1152" gradientUnits="userSpaceOnUse">
<stop stop-color="#2690C4"/>
<stop offset="0.708333" stop-color="#601B7B"/>
<stop offset="1" stop-color="#BD185F"/>
</linearGradient>
<linearGradient id="paint9_linear" x1="-5.35147e-07" y1="19.1152" x2="83" y2="19.1152" gradientUnits="userSpaceOnUse">
<stop stop-color="#2690C4"/>
<stop offset="0.708333" stop-color="#601B7B"/>
<stop offset="1" stop-color="#BD185F"/>
</linearGradient>
</defs>
</svg>
